nColumns=28
nRows=16
DataType=double
version=3
OpenSimVersion=4.5
endheader
time	ground_force_1_vx	ground_force_1_vy	ground_force_1_vz	ground_force_1_px	ground_force_1_py	ground_force_1_pz	ground_moment_1_mx	ground_moment_1_my	ground_moment_1_mz	ground_force_2_vx	ground_force_2_vy	ground_force_2_vz	ground_force_2_px	ground_force_2_py	ground_force_2_pz	ground_moment_2_mx	ground_moment_2_my	ground_moment_2_mz	ground_force_3_vx	ground_force_3_vy	ground_force_3_vz	ground_force_3_px	ground_force_3_py	ground_force_3_pz	ground_moment_3_mx	ground_moment_3_my	ground_moment_3_mz
1.331	-23.57518672943115	175.9365200996399	6.027312483638536	0.2986990419796899	1.30430727602324e-17	-0.2130095431484979	0	0.6696628733548652	4.100502471809275e-17	-1.602196134626865	2.899211831390858	2.975508105009794	1.232578972728923	-3.867308787283675e-18	0.06315794545784542	1.13686837721616e-16	1.843128338523267	1.128590610095149e-16	0.8392473682761192	-0.152592547237873	-0.3814767114818096	-2.397935915041655	1.224628113090422e-16	-1.999969483353169	0	3.067019629014547	1.878007885797384e-16
1.332	-23.57518672943115	176.8520623445511	6.179902702569972	0.3018119028809502	1.297555037710765e-17	-0.2119068189479895	0	0.9435837947173537	5.777784369639602e-17	-1.754786353558302	3.204392269253731	2.822917886078358	1.172428550668616	8.164317926492078e-18	-0.1333334302131259	2.842170943040401e-17	1.318087872083939	-3.297723304448893e-17	1.297018025070429	1.678490079939365	-0.534066930413246	1.692908939584356	6.679900897680427e-18	-0.1090910604156437	0	-0.2427575667188948	-1.486461385255473e-17
1.333	-23.57518672943115	176.8520623445511	6.027312483638536	0.3012942152150836	1.30178160133051e-17	-0.2125970691691451	0	0.6492518787986028	6.817692119095971e-17	-1.602196134626865	2.594031393527984	3.738459199666977	1.342176597303003	-4.322286700040932e-18	0.07058829865150142	-1.13686837721616e-16	2.426183878389646	1.485609160406396e-16	0.07629627361893654	-4.119938239455223	-0.991837587207556	1.402000226052557	1.723576002530298e-17	-0.2814813224074598	0	-0.009042757661977915	-5.53709211310323e-19
1.334	-24.3381392210722	176.2416958808899	6.179902702569972	0.3018181779269796	1.306289938504892e-17	-0.2133333365039425	0	1.037150650867584	6.350716124092906e-17	-0.8392450399696827	2.288850955665112	2.517737448215485	1.241000040689525	-1.63286405987301e-18	0.02666669379301646	0	1.618472705077842	9.910287088904689e-17	0.2288864925503731	-1.983675174415112	1.449605915695429	1.386615872166314	1.318848851102583e-17	-0.2153843625804301	0	0.1338103361764239	8.19351999456444e-18
1.335	-23.72777834534645	175.3261536359787	6.179902702569972	0.303394252043972	1.304584599642996e-17	-0.2130548335326233	0	0.9700829079206509	5.940044640462908e-17	-1.754786353558302	4.11993358284235	1.907376572489739	1.201	-5.442877738819941e-18	0.08888893912284726	0	1.422478983163396	8.710171667927171e-17	1.144427806138992	-1.983675174415112	-0.07629627361893666	1.248154496221751	2.260883744747286e-17	-0.3692303358521659	0	0.2817046172778421	1.724943289271698e-17
1.336	-24.03295785188675	176.8520623445511	6.485083140432845	0.2992234645516167	1.297555037710765e-17	-0.2119068189479895	0	1.013454047746482	6.205616278278287e-17	-1.754786353558302	2.288850955665111	4.654000513255596	1.080999877931426	-8.164320299365048e-18	0.1333334689650823	0	1.491313796076158	9.131663334444778e-17	0.5340669304132462	1.068129204213619	-1.602198462933302	2.230572362770786	1.399599392720695e-17	-0.2285719268110856	0	-1.129170014925298	-6.914172222357177e-17
1.337	-23.57518672943115	174.1054356098175	7.095444016158591	0.2992112141987457	1.313731554153769e-17	-0.2145486445673055	0	0.8187310277516313	5.01328166249329e-17	-1.449605915695429	0.7629487663507459	2.822917886078358	1.321000366206467	-6.368182789421279e-17	1.040003173789382	-1.13686837721616e-16	3.555355453876814	2.177027338210663e-16	-0.0762939453125	-1.678494736552238	-0.9918375872075559	1.256546211167028	6.679882365770952e-18	-0.1090907577665944	0	0.2732743020361539	1.673322496389014e-17
1.338	-23.1174174696207	175.0209778547287	6.485083140432845	0.3034001704403378	1.302588592250309e-17	-0.212728860787816	0	0.8951068248321306	5.480948539628096e-17	-2.670327667146921	3.204392269253731	2.059966791421175	1.143857101337232	0	0	0	1.377670740594655	8.435800313741042e-17	0.9918375872075558	-0.7629534229636193	1.449605915695429	1.202001831021161	1.469571674268417e-17	-0.2399992675915358	0	-0.2349869627594214	-1.438880158923419e-17
1.339	-23.422596976161	177.4624288082123	6.790263578295718	0.3038692994979891	1.305728329666486e-17	-0.2132416188203137	0	0.8834352880940799	5.409480989091174e-17	-1.144425477832556	4.730294458568096	2.822917886078358	1.084870910581863	5.530665686148479e-18	-0.09032262510299531	0	1.07945183909361	6.609736197898565e-17	1.144427806138992	-0.457772985100746	-1.754788681864738	1.202003051695726	-3.265708187728932e-17	0.5333306207149106	0	-0.3357015860466898	-2.055579364103842e-17
1.34	-24.03295785188675	178.0727803707123	6.485083140432845	0.3048843149840564	1.297055239814171e-17	-0.2118251957572144	0	1.143680911508904	7.003025837626532e-17	0.8392473682761192	3.204392269253731	2.822917886078358	1.172428550668616	-3.498993397068034e-18	0.05714289866276823	0	1.0310728498892	-5.055183445638859e-17	0.3814767114818096	-3.204396925866604	-0.6866571493446829	1.373428882827452	1.516228268684613e-17	-0.2476188676996944	0	0.03778381809521784	2.313591594493719e-18
1.341	-23.27000722289085	179.2934983968735	7.095444016158591	0.301276591911875	1.306984774120243e-17	-0.2134468117713968	0	0.9550195363353196	3.005637148440792e-17	-2.059966791421175	5.645835772156715	2.517737448215485	1.055053993866883	6.61971515775045e-18	-0.108108152691198	0	0.966266372293484	5.9166750997647e-17	-0.0762939453125	-1.373314298689365	0.8392450399696826	1.202001017235358	1.360716358767384e-17	-0.222221845468386	0	-0.09324866991204132	-6.255325311743449e-17
1.342	-23.57518672943115	178.3779561519623	6.485083140432845	0.3017964033683125	1.303216973362611e-17	-0.2128314832113164	0	1.059568300772163	6.487984640093148e-17	-1.297015696763992	3.509572707116604	1.754786353558302	1.201	2.129821933213125e-18	-0.03478263177098882	0	1.312938397785476	8.039429031628189e-17	-0.0762939453125	1.068129204213619	-0.228886492550373	1.802	0	0	0	0.01525809057056904	9.342885889173892e-19
1.343	-23.57518672943115	176.8520623445511	6.179902702569972	0.3028472782126836	1.30178160133051e-17	-0.2125970691691451	0	0.9794866013537638	5.997625655778032e-17	-1.754786353558302	1.068129204213619	2.822917886078358	1.201	-3.498998481801738e-17	0.571429817027714	0	2.81855991889807	1.725870191441773e-16	-0.2288841642439365	-1.068133860826492	-1.144427806138992	0.9448590112477112	1.399593291057984e-17	-0.2285709303339437	0	0.5166251925121916	3.163416941844703e-17
1.344	-23.1174174696207	176.8520623445511	6.027312483638536	0.302329590546817	1.303894883140382e-17	-0.2129421942797228	0	1.019497084665123	6.242619207376006e-17	-1.449605915695429	2.288850955665112	1.907376572489739	1.120999918620951	-1.306291247898408e-17	0.2133335503441317	0	1.63678348788785	1.002240829669548e-16	0.6866571493446827	-0.4577729851007462	-0.2288864925503731	0.8020050861595427	2.449281140796699e-17	-0.3999979655361829	0	0.2746605314361734	1.681810703377104e-17
1.345	-23.422596976161	174.7158020734787	6.485083140432845	0.3018340571228315	1.304863854071367e-17	-0.2131004392417249	0	0.6892542672180598	4.220465160736257e-17	-1.449605915695429	2.594031393527985	2.365147229284048	1.236294149325751	-8.644573400081868e-18	0.1411765973030029	0	1.493588088331695	9.145589358100124e-17	0.3814767114818096	0.4577683284878731	-0.9918375872075558	2.402003051726769	1.632870703946292e-17	-0.266668022989675	0	-0.7985593078598395	-4.889765501499391e-17
1.346	-23.57518672943115	175.9365200996399	6.332492921501409	0.3033824765603164	1.310680112876774e-17	-0.2140503063886371	0	0.9032728034164629	5.530950737304138e-17	-1.449605915695429	2.288850955665112	2.365147229284048	1.441000244137148	-1.63286405987301e-17	0.2666669379301646	0	2.205436747107628	1.350440526533654e-16	0.3814767114818096	0.1525878906250001	-0.8392473682761192	3.002018310546875	2.449330971549075e-17	-0.400006103515625	0	-1.205477630932705	-7.38142161082736e-17
